<svg xmlns="http://www.w3.org/2000/svg" viewBox="0 0 64 64" role="img" aria-label="Tripadvisor">
  <path fill="#ffffff" d="M10 20.5c5.2-3.8 12.4-5.9 22-5.9s16.8 2.1 22 5.9l-5.2 1.6c3.1 2.6 5 6.5 5 10.8 0 7.9-6.4 14.3-14.3 14.3-3.6 0-6.9-1.3-9.4-3.5l-8 6.5 2.9-9.4c-.9-1.4-1.3-3-1.6-4.7-2.2 6.4-8.2 11.1-15.3 11.1C4.6 47.2 0 42.6 0 37c0-4.3 1.9-8.2 5-10.8z"/>
  <circle cx="17.3" cy="33" r="11.2" fill="#060707"/>
  <circle cx="46.7" cy="33" r="11.2" fill="#060707"/>
  <circle cx="17.3" cy="33" r="7.1" fill="#34e0a1"/>
  <circle cx="46.7" cy="33" r="7.1" fill="#ff5d5d"/>
  <circle cx="17.3" cy="33" r="3.1" fill="#060707"/>
  <circle cx="46.7" cy="33" r="3.1" fill="#060707"/>
  <path fill="#f2c15b" d="m32 35.7-4.1-5.2h8.2z"/>
</svg>
